<mxfile host="app.diagrams.net" agent="Mozilla/5.0 (Windows NT 10.0; Win64; x64) AppleWebKit/537.36 (KHTML, like Gecko) Chrome/138.0.0.0 Safari/537.36" version="26.2.14">
  <diagram name="Sayfa -1" id="ZsNhFD9lEqvuMjzGx7Jh">
    <mxGraphModel dx="1501" dy="782" grid="1" gridSize="10" guides="1" tooltips="1" connect="1" arrows="1" fold="1" page="1" pageScale="1" pageWidth="827" pageHeight="1169" math="0" shadow="0">
      <root>
        <mxCell id="0" />
        <mxCell id="1" parent="0" />
        <mxCell id="B2MoK6NmhmkeDAOgQXN8-135" value="" style="rounded=1;whiteSpace=wrap;html=1;fillColor=#f5f5f5;fontColor=#333333;strokeColor=#666666;" vertex="1" parent="1">
          <mxGeometry x="70" y="650" width="710" height="470" as="geometry" />
        </mxCell>
        <mxCell id="B2MoK6NmhmkeDAOgQXN8-136" value="&lt;b&gt;&lt;font style=&quot;font-size: 18px;&quot;&gt;Java Plain&lt;/font&gt;&lt;/b&gt;" style="text;html=1;align=center;verticalAlign=middle;whiteSpace=wrap;rounded=0;" vertex="1" parent="1">
          <mxGeometry x="300" y="585" width="250" height="60" as="geometry" />
        </mxCell>
        <mxCell id="B2MoK6NmhmkeDAOgQXN8-131" value="&lt;span style=&quot;font-size: 16px; text-align: left;&quot;&gt;Player123&lt;/span&gt;" style="rounded=1;whiteSpace=wrap;html=1;fillColor=#d5e8d4;strokeColor=#82b366;" vertex="1" parent="1">
          <mxGeometry x="160" y="790" width="120" height="60" as="geometry" />
        </mxCell>
        <mxCell id="B2MoK6NmhmkeDAOgQXN8-133" value="" style="endArrow=classic;html=1;rounded=0;exitX=1;exitY=0.5;exitDx=0;exitDy=0;entryX=-0.012;entryY=1.087;entryDx=0;entryDy=0;entryPerimeter=0;" edge="1" parent="1" source="B2MoK6NmhmkeDAOgQXN8-131" target="B2MoK6NmhmkeDAOgQXN8-77">
          <mxGeometry width="50" height="50" relative="1" as="geometry">
            <mxPoint x="340" y="450" as="sourcePoint" />
            <mxPoint x="390" y="400" as="targetPoint" />
          </mxGeometry>
        </mxCell>
        <mxCell id="B2MoK6NmhmkeDAOgQXN8-76" value="LeaderboardEntry" style="shape=table;startSize=30;container=1;collapsible=0;childLayout=tableLayout;fixedRows=1;rowLines=0;fontStyle=0;strokeColor=#314354;fontSize=16;fillColor=#647687;fontColor=#ffffff;" vertex="1" parent="1">
          <mxGeometry x="480" y="760" width="260" height="150" as="geometry" />
        </mxCell>
        <mxCell id="B2MoK6NmhmkeDAOgQXN8-77" value="" style="shape=tableRow;horizontal=0;startSize=0;swimlaneHead=0;swimlaneBody=0;top=0;left=0;bottom=0;right=0;collapsible=0;dropTarget=0;fillColor=#d5e8d4;points=[[0,0.5],[1,0.5]];portConstraint=eastwest;strokeColor=#82b366;fontSize=16;" vertex="1" parent="B2MoK6NmhmkeDAOgQXN8-76">
          <mxGeometry y="30" width="260" height="30" as="geometry" />
        </mxCell>
        <mxCell id="B2MoK6NmhmkeDAOgQXN8-78" value="playerId" style="shape=partialRectangle;html=1;whiteSpace=wrap;connectable=0;fillColor=#d5e8d4;top=0;left=0;bottom=0;right=0;overflow=hidden;pointerEvents=1;strokeColor=#82b366;fontSize=16;" vertex="1" parent="B2MoK6NmhmkeDAOgQXN8-77">
          <mxGeometry width="100" height="30" as="geometry">
            <mxRectangle width="100" height="30" as="alternateBounds" />
          </mxGeometry>
        </mxCell>
        <mxCell id="B2MoK6NmhmkeDAOgQXN8-79" value="Player123" style="shape=partialRectangle;html=1;whiteSpace=wrap;connectable=0;fillColor=#d5e8d4;top=0;left=0;bottom=0;right=0;align=left;spacingLeft=6;overflow=hidden;strokeColor=#82b366;fontSize=16;" vertex="1" parent="B2MoK6NmhmkeDAOgQXN8-77">
          <mxGeometry x="100" width="160" height="30" as="geometry">
            <mxRectangle width="160" height="30" as="alternateBounds" />
          </mxGeometry>
        </mxCell>
        <mxCell id="B2MoK6NmhmkeDAOgQXN8-80" value="" style="shape=tableRow;horizontal=0;startSize=0;swimlaneHead=0;swimlaneBody=0;top=0;left=0;bottom=0;right=0;collapsible=0;dropTarget=0;fillColor=#d5e8d4;points=[[0,0.5],[1,0.5]];portConstraint=eastwest;strokeColor=#82b366;fontSize=16;" vertex="1" parent="B2MoK6NmhmkeDAOgQXN8-76">
          <mxGeometry y="60" width="260" height="30" as="geometry" />
        </mxCell>
        <mxCell id="B2MoK6NmhmkeDAOgQXN8-81" value="username" style="shape=partialRectangle;html=1;whiteSpace=wrap;connectable=0;fillColor=#d5e8d4;top=0;left=0;bottom=0;right=0;overflow=hidden;strokeColor=#82b366;fontSize=16;" vertex="1" parent="B2MoK6NmhmkeDAOgQXN8-80">
          <mxGeometry width="100" height="30" as="geometry">
            <mxRectangle width="100" height="30" as="alternateBounds" />
          </mxGeometry>
        </mxCell>
        <mxCell id="B2MoK6NmhmkeDAOgQXN8-82" value="SwiftTiger123" style="shape=partialRectangle;html=1;whiteSpace=wrap;connectable=0;fillColor=#d5e8d4;top=0;left=0;bottom=0;right=0;align=left;spacingLeft=6;overflow=hidden;strokeColor=#82b366;fontSize=16;" vertex="1" parent="B2MoK6NmhmkeDAOgQXN8-80">
          <mxGeometry x="100" width="160" height="30" as="geometry">
            <mxRectangle width="160" height="30" as="alternateBounds" />
          </mxGeometry>
        </mxCell>
        <mxCell id="B2MoK6NmhmkeDAOgQXN8-83" value="" style="shape=tableRow;horizontal=0;startSize=0;swimlaneHead=0;swimlaneBody=0;top=0;left=0;bottom=0;right=0;collapsible=0;dropTarget=0;fillColor=#d5e8d4;points=[[0,0.5],[1,0.5]];portConstraint=eastwest;strokeColor=#82b366;fontSize=16;" vertex="1" parent="B2MoK6NmhmkeDAOgQXN8-76">
          <mxGeometry y="90" width="260" height="30" as="geometry" />
        </mxCell>
        <mxCell id="B2MoK6NmhmkeDAOgQXN8-84" value="score" style="shape=partialRectangle;html=1;whiteSpace=wrap;connectable=0;fillColor=#d5e8d4;top=0;left=0;bottom=0;right=0;overflow=hidden;strokeColor=#82b366;fontSize=16;" vertex="1" parent="B2MoK6NmhmkeDAOgQXN8-83">
          <mxGeometry width="100" height="30" as="geometry">
            <mxRectangle width="100" height="30" as="alternateBounds" />
          </mxGeometry>
        </mxCell>
        <mxCell id="B2MoK6NmhmkeDAOgQXN8-85" value="14563" style="shape=partialRectangle;html=1;whiteSpace=wrap;connectable=0;fillColor=#d5e8d4;top=0;left=0;bottom=0;right=0;align=left;spacingLeft=6;overflow=hidden;strokeColor=#82b366;fontSize=16;" vertex="1" parent="B2MoK6NmhmkeDAOgQXN8-83">
          <mxGeometry x="100" width="160" height="30" as="geometry">
            <mxRectangle width="160" height="30" as="alternateBounds" />
          </mxGeometry>
        </mxCell>
        <mxCell id="B2MoK6NmhmkeDAOgQXN8-86" style="shape=tableRow;horizontal=0;startSize=0;swimlaneHead=0;swimlaneBody=0;top=0;left=0;bottom=0;right=0;collapsible=0;dropTarget=0;fillColor=#d5e8d4;points=[[0,0.5],[1,0.5]];portConstraint=eastwest;strokeColor=#82b366;fontSize=16;" vertex="1" parent="B2MoK6NmhmkeDAOgQXN8-76">
          <mxGeometry y="120" width="260" height="30" as="geometry" />
        </mxCell>
        <mxCell id="B2MoK6NmhmkeDAOgQXN8-87" value="level" style="shape=partialRectangle;html=1;whiteSpace=wrap;connectable=0;fillColor=#d5e8d4;top=0;left=0;bottom=0;right=0;overflow=hidden;strokeColor=#82b366;fontSize=16;" vertex="1" parent="B2MoK6NmhmkeDAOgQXN8-86">
          <mxGeometry width="100" height="30" as="geometry">
            <mxRectangle width="100" height="30" as="alternateBounds" />
          </mxGeometry>
        </mxCell>
        <mxCell id="B2MoK6NmhmkeDAOgQXN8-88" value="36" style="shape=partialRectangle;html=1;whiteSpace=wrap;connectable=0;fillColor=#d5e8d4;top=0;left=0;bottom=0;right=0;align=left;spacingLeft=6;overflow=hidden;strokeColor=#82b366;fontSize=16;" vertex="1" parent="B2MoK6NmhmkeDAOgQXN8-86">
          <mxGeometry x="100" width="160" height="30" as="geometry">
            <mxRectangle width="160" height="30" as="alternateBounds" />
          </mxGeometry>
        </mxCell>
        <mxCell id="B2MoK6NmhmkeDAOgQXN8-111" value="LeaderboardEntry" style="shape=table;startSize=30;container=1;collapsible=0;childLayout=tableLayout;fixedRows=1;rowLines=0;fontStyle=0;strokeColor=#314354;fontSize=16;fillColor=#647687;fontColor=#ffffff;" vertex="1" parent="1">
          <mxGeometry x="480" y="920.0024317617866" width="260" height="150" as="geometry" />
        </mxCell>
        <mxCell id="B2MoK6NmhmkeDAOgQXN8-112" value="" style="shape=tableRow;horizontal=0;startSize=0;swimlaneHead=0;swimlaneBody=0;top=0;left=0;bottom=0;right=0;collapsible=0;dropTarget=0;fillColor=#1ba1e2;points=[[0,0.5],[1,0.5]];portConstraint=eastwest;strokeColor=#006EAF;fontSize=16;fontColor=#ffffff;" vertex="1" parent="B2MoK6NmhmkeDAOgQXN8-111">
          <mxGeometry y="30" width="260" height="30" as="geometry" />
        </mxCell>
        <mxCell id="B2MoK6NmhmkeDAOgQXN8-113" value="playerId" style="shape=partialRectangle;html=1;whiteSpace=wrap;connectable=0;fillColor=#1ba1e2;top=0;left=0;bottom=0;right=0;overflow=hidden;pointerEvents=1;strokeColor=#006EAF;fontSize=16;fontColor=#ffffff;" vertex="1" parent="B2MoK6NmhmkeDAOgQXN8-112">
          <mxGeometry width="100" height="30" as="geometry">
            <mxRectangle width="100" height="30" as="alternateBounds" />
          </mxGeometry>
        </mxCell>
        <mxCell id="B2MoK6NmhmkeDAOgQXN8-114" value="Player456" style="shape=partialRectangle;html=1;whiteSpace=wrap;connectable=0;fillColor=#1ba1e2;top=0;left=0;bottom=0;right=0;align=left;spacingLeft=6;overflow=hidden;strokeColor=#006EAF;fontSize=16;fontColor=#ffffff;" vertex="1" parent="B2MoK6NmhmkeDAOgQXN8-112">
          <mxGeometry x="100" width="160" height="30" as="geometry">
            <mxRectangle width="160" height="30" as="alternateBounds" />
          </mxGeometry>
        </mxCell>
        <mxCell id="B2MoK6NmhmkeDAOgQXN8-115" value="" style="shape=tableRow;horizontal=0;startSize=0;swimlaneHead=0;swimlaneBody=0;top=0;left=0;bottom=0;right=0;collapsible=0;dropTarget=0;fillColor=#1ba1e2;points=[[0,0.5],[1,0.5]];portConstraint=eastwest;strokeColor=#006EAF;fontSize=16;fontColor=#ffffff;" vertex="1" parent="B2MoK6NmhmkeDAOgQXN8-111">
          <mxGeometry y="60" width="260" height="30" as="geometry" />
        </mxCell>
        <mxCell id="B2MoK6NmhmkeDAOgQXN8-116" value="username" style="shape=partialRectangle;html=1;whiteSpace=wrap;connectable=0;fillColor=#1ba1e2;top=0;left=0;bottom=0;right=0;overflow=hidden;strokeColor=#006EAF;fontSize=16;fontColor=#ffffff;" vertex="1" parent="B2MoK6NmhmkeDAOgQXN8-115">
          <mxGeometry width="100" height="30" as="geometry">
            <mxRectangle width="100" height="30" as="alternateBounds" />
          </mxGeometry>
        </mxCell>
        <mxCell id="B2MoK6NmhmkeDAOgQXN8-117" value="CyberNova" style="shape=partialRectangle;html=1;whiteSpace=wrap;connectable=0;fillColor=#1ba1e2;top=0;left=0;bottom=0;right=0;align=left;spacingLeft=6;overflow=hidden;strokeColor=#006EAF;fontSize=16;fontColor=#ffffff;" vertex="1" parent="B2MoK6NmhmkeDAOgQXN8-115">
          <mxGeometry x="100" width="160" height="30" as="geometry">
            <mxRectangle width="160" height="30" as="alternateBounds" />
          </mxGeometry>
        </mxCell>
        <mxCell id="B2MoK6NmhmkeDAOgQXN8-118" value="" style="shape=tableRow;horizontal=0;startSize=0;swimlaneHead=0;swimlaneBody=0;top=0;left=0;bottom=0;right=0;collapsible=0;dropTarget=0;fillColor=#1ba1e2;points=[[0,0.5],[1,0.5]];portConstraint=eastwest;strokeColor=#006EAF;fontSize=16;fontColor=#ffffff;" vertex="1" parent="B2MoK6NmhmkeDAOgQXN8-111">
          <mxGeometry y="90" width="260" height="30" as="geometry" />
        </mxCell>
        <mxCell id="B2MoK6NmhmkeDAOgQXN8-119" value="score" style="shape=partialRectangle;html=1;whiteSpace=wrap;connectable=0;fillColor=#1ba1e2;top=0;left=0;bottom=0;right=0;overflow=hidden;strokeColor=#006EAF;fontSize=16;fontColor=#ffffff;" vertex="1" parent="B2MoK6NmhmkeDAOgQXN8-118">
          <mxGeometry width="100" height="30" as="geometry">
            <mxRectangle width="100" height="30" as="alternateBounds" />
          </mxGeometry>
        </mxCell>
        <mxCell id="B2MoK6NmhmkeDAOgQXN8-120" value="85695" style="shape=partialRectangle;html=1;whiteSpace=wrap;connectable=0;fillColor=#1ba1e2;top=0;left=0;bottom=0;right=0;align=left;spacingLeft=6;overflow=hidden;strokeColor=#006EAF;fontSize=16;fontColor=#ffffff;" vertex="1" parent="B2MoK6NmhmkeDAOgQXN8-118">
          <mxGeometry x="100" width="160" height="30" as="geometry">
            <mxRectangle width="160" height="30" as="alternateBounds" />
          </mxGeometry>
        </mxCell>
        <mxCell id="B2MoK6NmhmkeDAOgQXN8-121" style="shape=tableRow;horizontal=0;startSize=0;swimlaneHead=0;swimlaneBody=0;top=0;left=0;bottom=0;right=0;collapsible=0;dropTarget=0;fillColor=#1ba1e2;points=[[0,0.5],[1,0.5]];portConstraint=eastwest;strokeColor=#006EAF;fontSize=16;fontColor=#ffffff;" vertex="1" parent="B2MoK6NmhmkeDAOgQXN8-111">
          <mxGeometry y="120" width="260" height="30" as="geometry" />
        </mxCell>
        <mxCell id="B2MoK6NmhmkeDAOgQXN8-122" value="level" style="shape=partialRectangle;html=1;whiteSpace=wrap;connectable=0;fillColor=#1ba1e2;top=0;left=0;bottom=0;right=0;overflow=hidden;strokeColor=#006EAF;fontSize=16;fontColor=#ffffff;" vertex="1" parent="B2MoK6NmhmkeDAOgQXN8-121">
          <mxGeometry width="100" height="30" as="geometry">
            <mxRectangle width="100" height="30" as="alternateBounds" />
          </mxGeometry>
        </mxCell>
        <mxCell id="B2MoK6NmhmkeDAOgQXN8-123" value="51" style="shape=partialRectangle;html=1;whiteSpace=wrap;connectable=0;fillColor=#1ba1e2;top=0;left=0;bottom=0;right=0;align=left;spacingLeft=6;overflow=hidden;strokeColor=#006EAF;fontSize=16;fontColor=#ffffff;" vertex="1" parent="B2MoK6NmhmkeDAOgQXN8-121">
          <mxGeometry x="100" width="160" height="30" as="geometry">
            <mxRectangle width="160" height="30" as="alternateBounds" />
          </mxGeometry>
        </mxCell>
        <mxCell id="B2MoK6NmhmkeDAOgQXN8-132" value="&lt;span style=&quot;font-size: 16px; text-align: left;&quot;&gt;Player456&lt;/span&gt;" style="rounded=1;whiteSpace=wrap;html=1;fillColor=#1ba1e2;fontColor=#ffffff;strokeColor=#006EAF;" vertex="1" parent="1">
          <mxGeometry x="160" y="950" width="120" height="60" as="geometry" />
        </mxCell>
        <mxCell id="B2MoK6NmhmkeDAOgQXN8-134" value="" style="endArrow=classic;html=1;rounded=0;exitX=1;exitY=0.5;exitDx=0;exitDy=0;entryX=-0.003;entryY=0.994;entryDx=0;entryDy=0;entryPerimeter=0;" edge="1" parent="1" source="B2MoK6NmhmkeDAOgQXN8-132" target="B2MoK6NmhmkeDAOgQXN8-112">
          <mxGeometry width="50" height="50" relative="1" as="geometry">
            <mxPoint x="320" y="566" as="sourcePoint" />
            <mxPoint x="467" y="564" as="targetPoint" />
          </mxGeometry>
        </mxCell>
        <mxCell id="B2MoK6NmhmkeDAOgQXN8-139" value="&lt;b&gt;&lt;font style=&quot;font-size: 18px;&quot;&gt;Hash Map&lt;/font&gt;&lt;/b&gt;" style="text;html=1;align=center;verticalAlign=middle;whiteSpace=wrap;rounded=0;" vertex="1" parent="1">
          <mxGeometry x="300" y="650" width="250" height="60" as="geometry" />
        </mxCell>
        <mxCell id="B2MoK6NmhmkeDAOgQXN8-173" value="" style="rounded=1;whiteSpace=wrap;html=1;fillColor=#ffe6cc;strokeColor=#d79b00;" vertex="1" parent="1">
          <mxGeometry x="840" y="650" width="710" height="470" as="geometry" />
        </mxCell>
        <mxCell id="B2MoK6NmhmkeDAOgQXN8-174" value="&lt;b&gt;&lt;font style=&quot;font-size: 18px;&quot;&gt;Caffeine&lt;/font&gt;&lt;/b&gt;" style="text;html=1;align=center;verticalAlign=middle;whiteSpace=wrap;rounded=0;" vertex="1" parent="1">
          <mxGeometry x="1070" y="585" width="250" height="60" as="geometry" />
        </mxCell>
        <mxCell id="B2MoK6NmhmkeDAOgQXN8-175" value="&lt;span style=&quot;font-size: 16px; text-align: left;&quot;&gt;Player123&lt;/span&gt;" style="rounded=1;whiteSpace=wrap;html=1;fillColor=#d5e8d4;strokeColor=#82b366;" vertex="1" parent="1">
          <mxGeometry x="930" y="790" width="120" height="60" as="geometry" />
        </mxCell>
        <mxCell id="B2MoK6NmhmkeDAOgQXN8-176" value="" style="endArrow=classic;html=1;rounded=0;exitX=1;exitY=0.5;exitDx=0;exitDy=0;entryX=-0.012;entryY=1.087;entryDx=0;entryDy=0;entryPerimeter=0;" edge="1" parent="1" source="B2MoK6NmhmkeDAOgQXN8-175" target="B2MoK6NmhmkeDAOgQXN8-178">
          <mxGeometry width="50" height="50" relative="1" as="geometry">
            <mxPoint x="1110" y="450" as="sourcePoint" />
            <mxPoint x="1160" y="400" as="targetPoint" />
          </mxGeometry>
        </mxCell>
        <mxCell id="B2MoK6NmhmkeDAOgQXN8-177" value="LeaderboardEntry" style="shape=table;startSize=30;container=1;collapsible=0;childLayout=tableLayout;fixedRows=1;rowLines=0;fontStyle=0;strokeColor=#314354;fontSize=16;fillColor=#647687;fontColor=#ffffff;" vertex="1" parent="1">
          <mxGeometry x="1250" y="760" width="260" height="150" as="geometry" />
        </mxCell>
        <mxCell id="B2MoK6NmhmkeDAOgQXN8-178" value="" style="shape=tableRow;horizontal=0;startSize=0;swimlaneHead=0;swimlaneBody=0;top=0;left=0;bottom=0;right=0;collapsible=0;dropTarget=0;fillColor=none;points=[[0,0.5],[1,0.5]];portConstraint=eastwest;strokeColor=inherit;fontSize=16;" vertex="1" parent="B2MoK6NmhmkeDAOgQXN8-177">
          <mxGeometry y="30" width="260" height="30" as="geometry" />
        </mxCell>
        <mxCell id="B2MoK6NmhmkeDAOgQXN8-179" value="playerId" style="shape=partialRectangle;html=1;whiteSpace=wrap;connectable=0;fillColor=#d5e8d4;top=0;left=0;bottom=0;right=0;overflow=hidden;pointerEvents=1;strokeColor=#82b366;fontSize=16;" vertex="1" parent="B2MoK6NmhmkeDAOgQXN8-178">
          <mxGeometry width="100" height="30" as="geometry">
            <mxRectangle width="100" height="30" as="alternateBounds" />
          </mxGeometry>
        </mxCell>
        <mxCell id="B2MoK6NmhmkeDAOgQXN8-180" value="Player123" style="shape=partialRectangle;html=1;whiteSpace=wrap;connectable=0;fillColor=#d5e8d4;top=0;left=0;bottom=0;right=0;align=left;spacingLeft=6;overflow=hidden;strokeColor=#82b366;fontSize=16;" vertex="1" parent="B2MoK6NmhmkeDAOgQXN8-178">
          <mxGeometry x="100" width="160" height="30" as="geometry">
            <mxRectangle width="160" height="30" as="alternateBounds" />
          </mxGeometry>
        </mxCell>
        <mxCell id="B2MoK6NmhmkeDAOgQXN8-181" value="" style="shape=tableRow;horizontal=0;startSize=0;swimlaneHead=0;swimlaneBody=0;top=0;left=0;bottom=0;right=0;collapsible=0;dropTarget=0;fillColor=none;points=[[0,0.5],[1,0.5]];portConstraint=eastwest;strokeColor=inherit;fontSize=16;" vertex="1" parent="B2MoK6NmhmkeDAOgQXN8-177">
          <mxGeometry y="60" width="260" height="30" as="geometry" />
        </mxCell>
        <mxCell id="B2MoK6NmhmkeDAOgQXN8-182" value="username" style="shape=partialRectangle;html=1;whiteSpace=wrap;connectable=0;fillColor=#d5e8d4;top=0;left=0;bottom=0;right=0;overflow=hidden;strokeColor=#82b366;fontSize=16;" vertex="1" parent="B2MoK6NmhmkeDAOgQXN8-181">
          <mxGeometry width="100" height="30" as="geometry">
            <mxRectangle width="100" height="30" as="alternateBounds" />
          </mxGeometry>
        </mxCell>
        <mxCell id="B2MoK6NmhmkeDAOgQXN8-183" value="SwiftTiger123" style="shape=partialRectangle;html=1;whiteSpace=wrap;connectable=0;fillColor=#d5e8d4;top=0;left=0;bottom=0;right=0;align=left;spacingLeft=6;overflow=hidden;strokeColor=#82b366;fontSize=16;" vertex="1" parent="B2MoK6NmhmkeDAOgQXN8-181">
          <mxGeometry x="100" width="160" height="30" as="geometry">
            <mxRectangle width="160" height="30" as="alternateBounds" />
          </mxGeometry>
        </mxCell>
        <mxCell id="B2MoK6NmhmkeDAOgQXN8-184" value="" style="shape=tableRow;horizontal=0;startSize=0;swimlaneHead=0;swimlaneBody=0;top=0;left=0;bottom=0;right=0;collapsible=0;dropTarget=0;fillColor=none;points=[[0,0.5],[1,0.5]];portConstraint=eastwest;strokeColor=inherit;fontSize=16;" vertex="1" parent="B2MoK6NmhmkeDAOgQXN8-177">
          <mxGeometry y="90" width="260" height="30" as="geometry" />
        </mxCell>
        <mxCell id="B2MoK6NmhmkeDAOgQXN8-185" value="score" style="shape=partialRectangle;html=1;whiteSpace=wrap;connectable=0;fillColor=#d5e8d4;top=0;left=0;bottom=0;right=0;overflow=hidden;strokeColor=#82b366;fontSize=16;" vertex="1" parent="B2MoK6NmhmkeDAOgQXN8-184">
          <mxGeometry width="100" height="30" as="geometry">
            <mxRectangle width="100" height="30" as="alternateBounds" />
          </mxGeometry>
        </mxCell>
        <mxCell id="B2MoK6NmhmkeDAOgQXN8-186" value="14563" style="shape=partialRectangle;html=1;whiteSpace=wrap;connectable=0;fillColor=#d5e8d4;top=0;left=0;bottom=0;right=0;align=left;spacingLeft=6;overflow=hidden;strokeColor=#82b366;fontSize=16;" vertex="1" parent="B2MoK6NmhmkeDAOgQXN8-184">
          <mxGeometry x="100" width="160" height="30" as="geometry">
            <mxRectangle width="160" height="30" as="alternateBounds" />
          </mxGeometry>
        </mxCell>
        <mxCell id="B2MoK6NmhmkeDAOgQXN8-187" style="shape=tableRow;horizontal=0;startSize=0;swimlaneHead=0;swimlaneBody=0;top=0;left=0;bottom=0;right=0;collapsible=0;dropTarget=0;fillColor=none;points=[[0,0.5],[1,0.5]];portConstraint=eastwest;strokeColor=inherit;fontSize=16;" vertex="1" parent="B2MoK6NmhmkeDAOgQXN8-177">
          <mxGeometry y="120" width="260" height="30" as="geometry" />
        </mxCell>
        <mxCell id="B2MoK6NmhmkeDAOgQXN8-188" value="level" style="shape=partialRectangle;html=1;whiteSpace=wrap;connectable=0;fillColor=#d5e8d4;top=0;left=0;bottom=0;right=0;overflow=hidden;strokeColor=#82b366;fontSize=16;" vertex="1" parent="B2MoK6NmhmkeDAOgQXN8-187">
          <mxGeometry width="100" height="30" as="geometry">
            <mxRectangle width="100" height="30" as="alternateBounds" />
          </mxGeometry>
        </mxCell>
        <mxCell id="B2MoK6NmhmkeDAOgQXN8-189" value="36" style="shape=partialRectangle;html=1;whiteSpace=wrap;connectable=0;fillColor=#d5e8d4;top=0;left=0;bottom=0;right=0;align=left;spacingLeft=6;overflow=hidden;strokeColor=#82b366;fontSize=16;" vertex="1" parent="B2MoK6NmhmkeDAOgQXN8-187">
          <mxGeometry x="100" width="160" height="30" as="geometry">
            <mxRectangle width="160" height="30" as="alternateBounds" />
          </mxGeometry>
        </mxCell>
        <mxCell id="B2MoK6NmhmkeDAOgQXN8-190" value="LeaderboardEntry" style="shape=table;startSize=30;container=1;collapsible=0;childLayout=tableLayout;fixedRows=1;rowLines=0;fontStyle=0;strokeColor=#314354;fontSize=16;fillColor=#647687;fontColor=#ffffff;" vertex="1" parent="1">
          <mxGeometry x="1250" y="920.0024317617866" width="260" height="150" as="geometry" />
        </mxCell>
        <mxCell id="B2MoK6NmhmkeDAOgQXN8-191" value="" style="shape=tableRow;horizontal=0;startSize=0;swimlaneHead=0;swimlaneBody=0;top=0;left=0;bottom=0;right=0;collapsible=0;dropTarget=0;fillColor=none;points=[[0,0.5],[1,0.5]];portConstraint=eastwest;strokeColor=inherit;fontSize=16;" vertex="1" parent="B2MoK6NmhmkeDAOgQXN8-190">
          <mxGeometry y="30" width="260" height="30" as="geometry" />
        </mxCell>
        <mxCell id="B2MoK6NmhmkeDAOgQXN8-192" value="playerId" style="shape=partialRectangle;html=1;whiteSpace=wrap;connectable=0;fillColor=#1ba1e2;top=0;left=0;bottom=0;right=0;overflow=hidden;pointerEvents=1;strokeColor=#006EAF;fontSize=16;fontColor=#ffffff;" vertex="1" parent="B2MoK6NmhmkeDAOgQXN8-191">
          <mxGeometry width="100" height="30" as="geometry">
            <mxRectangle width="100" height="30" as="alternateBounds" />
          </mxGeometry>
        </mxCell>
        <mxCell id="B2MoK6NmhmkeDAOgQXN8-193" value="Player456" style="shape=partialRectangle;html=1;whiteSpace=wrap;connectable=0;fillColor=#1ba1e2;top=0;left=0;bottom=0;right=0;align=left;spacingLeft=6;overflow=hidden;strokeColor=#006EAF;fontSize=16;fontColor=#ffffff;" vertex="1" parent="B2MoK6NmhmkeDAOgQXN8-191">
          <mxGeometry x="100" width="160" height="30" as="geometry">
            <mxRectangle width="160" height="30" as="alternateBounds" />
          </mxGeometry>
        </mxCell>
        <mxCell id="B2MoK6NmhmkeDAOgQXN8-194" value="" style="shape=tableRow;horizontal=0;startSize=0;swimlaneHead=0;swimlaneBody=0;top=0;left=0;bottom=0;right=0;collapsible=0;dropTarget=0;fillColor=none;points=[[0,0.5],[1,0.5]];portConstraint=eastwest;strokeColor=inherit;fontSize=16;" vertex="1" parent="B2MoK6NmhmkeDAOgQXN8-190">
          <mxGeometry y="60" width="260" height="30" as="geometry" />
        </mxCell>
        <mxCell id="B2MoK6NmhmkeDAOgQXN8-195" value="username" style="shape=partialRectangle;html=1;whiteSpace=wrap;connectable=0;fillColor=#1ba1e2;top=0;left=0;bottom=0;right=0;overflow=hidden;strokeColor=#006EAF;fontSize=16;fontColor=#ffffff;" vertex="1" parent="B2MoK6NmhmkeDAOgQXN8-194">
          <mxGeometry width="100" height="30" as="geometry">
            <mxRectangle width="100" height="30" as="alternateBounds" />
          </mxGeometry>
        </mxCell>
        <mxCell id="B2MoK6NmhmkeDAOgQXN8-196" value="CyberNova" style="shape=partialRectangle;html=1;whiteSpace=wrap;connectable=0;fillColor=#1ba1e2;top=0;left=0;bottom=0;right=0;align=left;spacingLeft=6;overflow=hidden;strokeColor=#006EAF;fontSize=16;fontColor=#ffffff;" vertex="1" parent="B2MoK6NmhmkeDAOgQXN8-194">
          <mxGeometry x="100" width="160" height="30" as="geometry">
            <mxRectangle width="160" height="30" as="alternateBounds" />
          </mxGeometry>
        </mxCell>
        <mxCell id="B2MoK6NmhmkeDAOgQXN8-197" value="" style="shape=tableRow;horizontal=0;startSize=0;swimlaneHead=0;swimlaneBody=0;top=0;left=0;bottom=0;right=0;collapsible=0;dropTarget=0;fillColor=none;points=[[0,0.5],[1,0.5]];portConstraint=eastwest;strokeColor=inherit;fontSize=16;" vertex="1" parent="B2MoK6NmhmkeDAOgQXN8-190">
          <mxGeometry y="90" width="260" height="30" as="geometry" />
        </mxCell>
        <mxCell id="B2MoK6NmhmkeDAOgQXN8-198" value="score" style="shape=partialRectangle;html=1;whiteSpace=wrap;connectable=0;fillColor=#1ba1e2;top=0;left=0;bottom=0;right=0;overflow=hidden;strokeColor=#006EAF;fontSize=16;fontColor=#ffffff;" vertex="1" parent="B2MoK6NmhmkeDAOgQXN8-197">
          <mxGeometry width="100" height="30" as="geometry">
            <mxRectangle width="100" height="30" as="alternateBounds" />
          </mxGeometry>
        </mxCell>
        <mxCell id="B2MoK6NmhmkeDAOgQXN8-199" value="85695" style="shape=partialRectangle;html=1;whiteSpace=wrap;connectable=0;fillColor=#1ba1e2;top=0;left=0;bottom=0;right=0;align=left;spacingLeft=6;overflow=hidden;strokeColor=#006EAF;fontSize=16;fontColor=#ffffff;" vertex="1" parent="B2MoK6NmhmkeDAOgQXN8-197">
          <mxGeometry x="100" width="160" height="30" as="geometry">
            <mxRectangle width="160" height="30" as="alternateBounds" />
          </mxGeometry>
        </mxCell>
        <mxCell id="B2MoK6NmhmkeDAOgQXN8-200" style="shape=tableRow;horizontal=0;startSize=0;swimlaneHead=0;swimlaneBody=0;top=0;left=0;bottom=0;right=0;collapsible=0;dropTarget=0;fillColor=none;points=[[0,0.5],[1,0.5]];portConstraint=eastwest;strokeColor=inherit;fontSize=16;" vertex="1" parent="B2MoK6NmhmkeDAOgQXN8-190">
          <mxGeometry y="120" width="260" height="30" as="geometry" />
        </mxCell>
        <mxCell id="B2MoK6NmhmkeDAOgQXN8-201" value="level" style="shape=partialRectangle;html=1;whiteSpace=wrap;connectable=0;fillColor=#1ba1e2;top=0;left=0;bottom=0;right=0;overflow=hidden;strokeColor=#006EAF;fontSize=16;fontColor=#ffffff;" vertex="1" parent="B2MoK6NmhmkeDAOgQXN8-200">
          <mxGeometry width="100" height="30" as="geometry">
            <mxRectangle width="100" height="30" as="alternateBounds" />
          </mxGeometry>
        </mxCell>
        <mxCell id="B2MoK6NmhmkeDAOgQXN8-202" value="51" style="shape=partialRectangle;html=1;whiteSpace=wrap;connectable=0;fillColor=#1ba1e2;top=0;left=0;bottom=0;right=0;align=left;spacingLeft=6;overflow=hidden;strokeColor=#006EAF;fontSize=16;fontColor=#ffffff;" vertex="1" parent="B2MoK6NmhmkeDAOgQXN8-200">
          <mxGeometry x="100" width="160" height="30" as="geometry">
            <mxRectangle width="160" height="30" as="alternateBounds" />
          </mxGeometry>
        </mxCell>
        <mxCell id="B2MoK6NmhmkeDAOgQXN8-203" value="&lt;span style=&quot;font-size: 16px; text-align: left;&quot;&gt;Player456&lt;/span&gt;" style="rounded=1;whiteSpace=wrap;html=1;fillColor=#1ba1e2;fontColor=#ffffff;strokeColor=#006EAF;" vertex="1" parent="1">
          <mxGeometry x="930" y="950" width="120" height="60" as="geometry" />
        </mxCell>
        <mxCell id="B2MoK6NmhmkeDAOgQXN8-204" value="" style="endArrow=classic;html=1;rounded=0;exitX=1;exitY=0.5;exitDx=0;exitDy=0;entryX=-0.003;entryY=0.994;entryDx=0;entryDy=0;entryPerimeter=0;" edge="1" parent="1" source="B2MoK6NmhmkeDAOgQXN8-203" target="B2MoK6NmhmkeDAOgQXN8-191">
          <mxGeometry width="50" height="50" relative="1" as="geometry">
            <mxPoint x="1090" y="566" as="sourcePoint" />
            <mxPoint x="1237" y="564" as="targetPoint" />
          </mxGeometry>
        </mxCell>
        <mxCell id="B2MoK6NmhmkeDAOgQXN8-205" value="&lt;b&gt;&lt;font style=&quot;font-size: 19px;&quot;&gt;Key&lt;/font&gt;&lt;/b&gt;" style="rounded=0;whiteSpace=wrap;html=1;" vertex="1" parent="1">
          <mxGeometry x="840" y="710" width="350" height="40" as="geometry" />
        </mxCell>
        <mxCell id="B2MoK6NmhmkeDAOgQXN8-206" value="&lt;b&gt;&lt;font style=&quot;font-size: 19px;&quot;&gt;Value&lt;/font&gt;&lt;/b&gt;" style="rounded=0;whiteSpace=wrap;html=1;" vertex="1" parent="1">
          <mxGeometry x="1200" y="710" width="350" height="40" as="geometry" />
        </mxCell>
        <mxCell id="B2MoK6NmhmkeDAOgQXN8-207" value="&lt;b&gt;&lt;font style=&quot;font-size: 18px;&quot;&gt;Cache (Concurrent Hash Map)&lt;/font&gt;&lt;/b&gt;" style="text;html=1;align=center;verticalAlign=middle;whiteSpace=wrap;rounded=0;" vertex="1" parent="1">
          <mxGeometry x="1044.5" y="650" width="301" height="60" as="geometry" />
        </mxCell>
        <mxCell id="B2MoK6NmhmkeDAOgQXN8-208" value="&lt;b&gt;&lt;font style=&quot;font-size: 19px;&quot;&gt;Key&lt;/font&gt;&lt;/b&gt;" style="rounded=0;whiteSpace=wrap;html=1;" vertex="1" parent="1">
          <mxGeometry x="70" y="710" width="350" height="40" as="geometry" />
        </mxCell>
        <mxCell id="B2MoK6NmhmkeDAOgQXN8-209" value="&lt;b&gt;&lt;font style=&quot;font-size: 19px;&quot;&gt;Value&lt;/font&gt;&lt;/b&gt;" style="rounded=0;whiteSpace=wrap;html=1;" vertex="1" parent="1">
          <mxGeometry x="430" y="710" width="350" height="40" as="geometry" />
        </mxCell>
        <mxCell id="B2MoK6NmhmkeDAOgQXN8-210" value="" style="rounded=1;whiteSpace=wrap;html=1;fillColor=#f8cecc;strokeColor=#b85450;" vertex="1" parent="1">
          <mxGeometry x="1580" y="640" width="850" height="470" as="geometry" />
        </mxCell>
        <mxCell id="B2MoK6NmhmkeDAOgQXN8-211" value="&lt;b&gt;&lt;font style=&quot;font-size: 18px;&quot;&gt;Redis&lt;/font&gt;&lt;/b&gt;" style="text;html=1;align=center;verticalAlign=middle;whiteSpace=wrap;rounded=0;" vertex="1" parent="1">
          <mxGeometry x="1880" y="580" width="250" height="60" as="geometry" />
        </mxCell>
        <mxCell id="B2MoK6NmhmkeDAOgQXN8-246" value="" style="rounded=1;whiteSpace=wrap;html=1;fillColor=#FF9999;strokeColor=#B85450;" vertex="1" parent="1">
          <mxGeometry x="1610" y="695" width="330" height="380" as="geometry" />
        </mxCell>
        <mxCell id="B2MoK6NmhmkeDAOgQXN8-242" value="&lt;b&gt;&lt;font style=&quot;font-size: 19px;&quot;&gt;Member&lt;/font&gt;&lt;/b&gt;" style="rounded=0;whiteSpace=wrap;html=1;" vertex="1" parent="1">
          <mxGeometry x="1610" y="750" width="160" height="30" as="geometry" />
        </mxCell>
        <mxCell id="B2MoK6NmhmkeDAOgQXN8-244" value="&lt;b&gt;&lt;font style=&quot;font-size: 18px;&quot;&gt;Sorted Set&lt;/font&gt;&lt;/b&gt;" style="text;html=1;align=center;verticalAlign=middle;whiteSpace=wrap;rounded=0;" vertex="1" parent="1">
          <mxGeometry x="1682.25" y="700" width="185.5" height="40" as="geometry" />
        </mxCell>
        <mxCell id="B2MoK6NmhmkeDAOgQXN8-243" value="&lt;b&gt;&lt;font style=&quot;font-size: 19px;&quot;&gt;Score&lt;/font&gt;&lt;/b&gt;" style="rounded=0;whiteSpace=wrap;html=1;" vertex="1" parent="1">
          <mxGeometry x="1780" y="750" width="160" height="30" as="geometry" />
        </mxCell>
        <mxCell id="B2MoK6NmhmkeDAOgQXN8-240" value="&lt;span style=&quot;font-size: 16px; text-align: left;&quot;&gt;Player456&lt;/span&gt;" style="rounded=1;whiteSpace=wrap;html=1;fillColor=#1ba1e2;strokeColor=#006EAF;fontColor=#ffffff;" vertex="1" parent="1">
          <mxGeometry x="1640" y="800" width="120" height="60" as="geometry" />
        </mxCell>
        <mxCell id="B2MoK6NmhmkeDAOgQXN8-212" value="&lt;span style=&quot;font-size: 16px; text-align: left;&quot;&gt;Player123&lt;/span&gt;" style="rounded=1;whiteSpace=wrap;html=1;fillColor=#d5e8d4;strokeColor=#82b366;" vertex="1" parent="1">
          <mxGeometry x="1640" y="890" width="120" height="60" as="geometry" />
        </mxCell>
        <mxCell id="B2MoK6NmhmkeDAOgQXN8-247" value="&lt;span style=&quot;font-size: 16px; text-align: left;&quot;&gt;85695&lt;/span&gt;" style="rounded=1;whiteSpace=wrap;html=1;fillColor=#1ba1e2;strokeColor=#006EAF;fontColor=#ffffff;" vertex="1" parent="1">
          <mxGeometry x="1800" y="800" width="120" height="60" as="geometry" />
        </mxCell>
        <mxCell id="B2MoK6NmhmkeDAOgQXN8-262" value="&lt;span style=&quot;font-size: 16px; text-align: left;&quot;&gt;14563&lt;/span&gt;" style="rounded=1;whiteSpace=wrap;html=1;fillColor=#d5e8d4;strokeColor=#82b366;" vertex="1" parent="1">
          <mxGeometry x="1800" y="890" width="120" height="60" as="geometry" />
        </mxCell>
        <mxCell id="B2MoK6NmhmkeDAOgQXN8-263" value="" style="rounded=1;whiteSpace=wrap;html=1;fillColor=#FF9999;strokeColor=#B85450;" vertex="1" parent="1">
          <mxGeometry x="1960" y="695" width="440" height="375" as="geometry" />
        </mxCell>
        <mxCell id="B2MoK6NmhmkeDAOgQXN8-264" value="&lt;b&gt;&lt;font style=&quot;font-size: 18px;&quot;&gt;Hash&lt;/font&gt;&lt;/b&gt;" style="text;html=1;align=center;verticalAlign=middle;whiteSpace=wrap;rounded=0;" vertex="1" parent="1">
          <mxGeometry x="2072.25" y="700" width="185.5" height="40" as="geometry" />
        </mxCell>
        <mxCell id="B2MoK6NmhmkeDAOgQXN8-265" value="&lt;span style=&quot;font-size: 16px; text-align: left;&quot;&gt;player:Player456&lt;/span&gt;" style="rounded=1;whiteSpace=wrap;html=1;fillColor=#1ba1e2;strokeColor=#006EAF;fontColor=#ffffff;" vertex="1" parent="1">
          <mxGeometry x="1970" y="900" width="140" height="60" as="geometry" />
        </mxCell>
        <mxCell id="B2MoK6NmhmkeDAOgQXN8-267" value="&lt;span style=&quot;font-size: 16px; text-align: left;&quot;&gt;player:&lt;/span&gt;&lt;span style=&quot;font-size: 16px; text-align: left;&quot;&gt;Player123&lt;/span&gt;" style="rounded=1;whiteSpace=wrap;html=1;fillColor=#d5e8d4;strokeColor=#82b366;" vertex="1" parent="1">
          <mxGeometry x="1970" y="805" width="140" height="60" as="geometry" />
        </mxCell>
        <mxCell id="B2MoK6NmhmkeDAOgQXN8-268" value="" style="shape=table;startSize=0;container=1;collapsible=0;childLayout=tableLayout;fontSize=16;fillColor=#1ba1e2;fontColor=#ffffff;strokeColor=#006EAF;" vertex="1" parent="1">
          <mxGeometry x="2140" y="900" width="250" height="60" as="geometry" />
        </mxCell>
        <mxCell id="B2MoK6NmhmkeDAOgQXN8-269" value="" style="shape=tableRow;horizontal=0;startSize=0;swimlaneHead=0;swimlaneBody=0;strokeColor=inherit;top=0;left=0;bottom=0;right=0;collapsible=0;dropTarget=0;fillColor=none;points=[[0,0.5],[1,0.5]];portConstraint=eastwest;fontSize=16;" vertex="1" parent="B2MoK6NmhmkeDAOgQXN8-268">
          <mxGeometry width="250" height="30" as="geometry" />
        </mxCell>
        <mxCell id="B2MoK6NmhmkeDAOgQXN8-270" value="username" style="shape=partialRectangle;html=1;whiteSpace=wrap;connectable=0;strokeColor=#006EAF;overflow=hidden;fillColor=#1ba1e2;top=0;left=0;bottom=0;right=0;pointerEvents=1;fontSize=16;fontColor=#ffffff;" vertex="1" parent="B2MoK6NmhmkeDAOgQXN8-269">
          <mxGeometry width="93" height="30" as="geometry">
            <mxRectangle width="93" height="30" as="alternateBounds" />
          </mxGeometry>
        </mxCell>
        <mxCell id="B2MoK6NmhmkeDAOgQXN8-271" value="Cybernova" style="shape=partialRectangle;html=1;whiteSpace=wrap;connectable=0;strokeColor=#006EAF;overflow=hidden;fillColor=#1ba1e2;top=0;left=0;bottom=0;right=0;pointerEvents=1;fontSize=16;fontColor=#ffffff;" vertex="1" parent="B2MoK6NmhmkeDAOgQXN8-269">
          <mxGeometry x="93" width="157" height="30" as="geometry">
            <mxRectangle width="157" height="30" as="alternateBounds" />
          </mxGeometry>
        </mxCell>
        <mxCell id="B2MoK6NmhmkeDAOgQXN8-273" value="" style="shape=tableRow;horizontal=0;startSize=0;swimlaneHead=0;swimlaneBody=0;strokeColor=inherit;top=0;left=0;bottom=0;right=0;collapsible=0;dropTarget=0;fillColor=none;points=[[0,0.5],[1,0.5]];portConstraint=eastwest;fontSize=16;" vertex="1" parent="B2MoK6NmhmkeDAOgQXN8-268">
          <mxGeometry y="30" width="250" height="30" as="geometry" />
        </mxCell>
        <mxCell id="B2MoK6NmhmkeDAOgQXN8-274" value="level" style="shape=partialRectangle;html=1;whiteSpace=wrap;connectable=0;strokeColor=#006EAF;overflow=hidden;fillColor=#1ba1e2;top=0;left=0;bottom=0;right=0;pointerEvents=1;fontSize=16;fontColor=#ffffff;" vertex="1" parent="B2MoK6NmhmkeDAOgQXN8-273">
          <mxGeometry width="93" height="30" as="geometry">
            <mxRectangle width="93" height="30" as="alternateBounds" />
          </mxGeometry>
        </mxCell>
        <mxCell id="B2MoK6NmhmkeDAOgQXN8-275" value="51" style="shape=partialRectangle;html=1;whiteSpace=wrap;connectable=0;strokeColor=#006EAF;overflow=hidden;fillColor=#1ba1e2;top=0;left=0;bottom=0;right=0;pointerEvents=1;fontSize=16;fontColor=#ffffff;" vertex="1" parent="B2MoK6NmhmkeDAOgQXN8-273">
          <mxGeometry x="93" width="157" height="30" as="geometry">
            <mxRectangle width="157" height="30" as="alternateBounds" />
          </mxGeometry>
        </mxCell>
        <mxCell id="B2MoK6NmhmkeDAOgQXN8-288" value="" style="shape=table;startSize=0;container=1;collapsible=0;childLayout=tableLayout;fontSize=16;fillColor=#1ba1e2;fontColor=#ffffff;strokeColor=#006EAF;" vertex="1" parent="1">
          <mxGeometry x="2140" y="805" width="250" height="60" as="geometry" />
        </mxCell>
        <mxCell id="B2MoK6NmhmkeDAOgQXN8-289" value="" style="shape=tableRow;horizontal=0;startSize=0;swimlaneHead=0;swimlaneBody=0;strokeColor=#36393d;top=0;left=0;bottom=0;right=0;collapsible=0;dropTarget=0;fillColor=#cdeb8b;points=[[0,0.5],[1,0.5]];portConstraint=eastwest;fontSize=16;" vertex="1" parent="B2MoK6NmhmkeDAOgQXN8-288">
          <mxGeometry width="250" height="30" as="geometry" />
        </mxCell>
        <mxCell id="B2MoK6NmhmkeDAOgQXN8-290" value="username" style="shape=partialRectangle;html=1;whiteSpace=wrap;connectable=0;strokeColor=#82b366;overflow=hidden;fillColor=#d5e8d4;top=0;left=0;bottom=0;right=0;pointerEvents=1;fontSize=16;" vertex="1" parent="B2MoK6NmhmkeDAOgQXN8-289">
          <mxGeometry width="92" height="30" as="geometry">
            <mxRectangle width="92" height="30" as="alternateBounds" />
          </mxGeometry>
        </mxCell>
        <mxCell id="B2MoK6NmhmkeDAOgQXN8-291" value="SwiftTiger" style="shape=partialRectangle;html=1;whiteSpace=wrap;connectable=0;strokeColor=#82b366;overflow=hidden;fillColor=#d5e8d4;top=0;left=0;bottom=0;right=0;pointerEvents=1;fontSize=16;" vertex="1" parent="B2MoK6NmhmkeDAOgQXN8-289">
          <mxGeometry x="92" width="158" height="30" as="geometry">
            <mxRectangle width="158" height="30" as="alternateBounds" />
          </mxGeometry>
        </mxCell>
        <mxCell id="B2MoK6NmhmkeDAOgQXN8-292" value="" style="shape=tableRow;horizontal=0;startSize=0;swimlaneHead=0;swimlaneBody=0;strokeColor=inherit;top=0;left=0;bottom=0;right=0;collapsible=0;dropTarget=0;fillColor=none;points=[[0,0.5],[1,0.5]];portConstraint=eastwest;fontSize=16;" vertex="1" parent="B2MoK6NmhmkeDAOgQXN8-288">
          <mxGeometry y="30" width="250" height="30" as="geometry" />
        </mxCell>
        <mxCell id="B2MoK6NmhmkeDAOgQXN8-293" value="level" style="shape=partialRectangle;html=1;whiteSpace=wrap;connectable=0;strokeColor=#82b366;overflow=hidden;fillColor=#d5e8d4;top=0;left=0;bottom=0;right=0;pointerEvents=1;fontSize=16;" vertex="1" parent="B2MoK6NmhmkeDAOgQXN8-292">
          <mxGeometry width="92" height="30" as="geometry">
            <mxRectangle width="92" height="30" as="alternateBounds" />
          </mxGeometry>
        </mxCell>
        <mxCell id="B2MoK6NmhmkeDAOgQXN8-294" value="36" style="shape=partialRectangle;html=1;whiteSpace=wrap;connectable=0;strokeColor=#82b366;overflow=hidden;fillColor=#d5e8d4;top=0;left=0;bottom=0;right=0;pointerEvents=1;fontSize=16;" vertex="1" parent="B2MoK6NmhmkeDAOgQXN8-292">
          <mxGeometry x="92" width="158" height="30" as="geometry">
            <mxRectangle width="158" height="30" as="alternateBounds" />
          </mxGeometry>
        </mxCell>
        <mxCell id="B2MoK6NmhmkeDAOgQXN8-296" value="" style="endArrow=classic;html=1;rounded=0;entryX=0;entryY=0.5;entryDx=0;entryDy=0;exitX=1;exitY=0.5;exitDx=0;exitDy=0;" edge="1" parent="1" source="B2MoK6NmhmkeDAOgQXN8-267" target="B2MoK6NmhmkeDAOgQXN8-288">
          <mxGeometry width="50" height="50" relative="1" as="geometry">
            <mxPoint x="1960" y="930" as="sourcePoint" />
            <mxPoint x="2010" y="880" as="targetPoint" />
          </mxGeometry>
        </mxCell>
        <mxCell id="B2MoK6NmhmkeDAOgQXN8-297" value="" style="endArrow=classic;html=1;rounded=0;entryX=0;entryY=0.5;entryDx=0;entryDy=0;exitX=1;exitY=0.5;exitDx=0;exitDy=0;" edge="1" parent="1">
          <mxGeometry width="50" height="50" relative="1" as="geometry">
            <mxPoint x="2110" y="929.74" as="sourcePoint" />
            <mxPoint x="2140" y="929.74" as="targetPoint" />
          </mxGeometry>
        </mxCell>
      </root>
    </mxGraphModel>
  </diagram>
</mxfile>
